{"title":"The Grey 2012 DVDRip XviD - MAXSPEED Stumpie1971","uid":7078981,"size":1807396128,"categoryP":"video","categoryS":"movies","magnet":"?xt=urn:btih:a3d20f48f8dcfd07a7d043cbddcb176d60b4ce3e&amp;dn=The+Grey+2012+DVDRip+XviD+-+MAXSPEED+Stumpie1971&amp;tr=udp%3A%2F%2Ftracker.openbittorrent.com%3A80&amp;tr=udp%3A%2F%2Fopen.demonii.com%3A1337&amp;tr=udp%3A%2F%2Ftracker.coppersurfer.tk%3A6969&amp;tr=udp%3A%2F%2Fexodus.desync.com%3A6969","seeders":1,"leechers":0,"uploader":"stumpie1971","files":-1,"time":1330958263,"description":"Screens:\n  &lt;a href=&quot;\nhttp://www.postimg.com/image/62000/photo-61572.jpg&quot; rel=&quot;nofollow&quot; target=&quot;_NEW&quot;&gt;\nhttp://www.postimg.com/image/62000/photo-61572.jpg&lt;/a&gt;  &lt;a href=&quot;\nhttp://www.postimg.com/image/62000/photo-61573.jpg&quot; rel=&quot;nofollow&quot; target=&quot;_NEW&quot;&gt;\nhttp://www.postimg.com/image/62000/photo-61573.jpg&lt;/a&gt;  &lt;a href=&quot;\nhttp://www.postimg.com/image/62000/photo-61574.jpg&quot; rel=&quot;nofollow&quot; target=&quot;_NEW&quot;&gt;\nhttp://www.postimg.com/image/62000/photo-61574.jpg&lt;/a&gt;  &lt;a href=&quot;\nhttp://www.postimg.com/image/62000/photo-61575.jpg&quot; rel=&quot;nofollow&quot; target=&quot;_NEW&quot;&gt;\nhttp://www.postimg.com/image/62000/photo-61575.jpg&lt;/a&gt;\n\nScreenCaps:\n  &lt;a href=&quot;\nhttp://www.postimg.com/image/62000/photo-61576.jpg&quot; rel=&quot;nofollow&quot; target=&quot;_NEW&quot;&gt;\nhttp://www.postimg.com/image/62000/photo-61576.jpg&lt;/a&gt;\n\nThe Grey (2012) DVDRip XviD-MAX\nFormat                           : AVI\nFormat/Info                      : Audio Video Interleave\nFormat profile                   : OpenDML\nFile size                        : 1.68 GiB\nDuration                         : 1h 57mn\nOverall bit rate                 : 2 049 Kbps\nWriting application              : VirtualDubMod 1.5.10.2 (build 2542/release)\nWriting library                  : VirtualDubMod build 2542/release\nOriginal source form             : MAX TORRENTZ\nCopyright                        : SIGISMUNT\n\nVideo\nID                               : 0\nFormat                           : MPEG-4 Visual\nFormat profile                   : AdvancedSimple@L5\nFormat settings, BVOP            : Yes\nFormat settings, QPel            : No\nFormat settings, GMC             : No warppoints\nFormat settings, Matrix          : Custom\nCodec ID                         : XVID\nCodec ID/Hint                    : XviD\nDuration                         : 1h 57mn\nBit rate                         : 1 862 Kbps\nWidth                            : 720 pixels\nHeight                           : 304 pixels\nDisplay aspect ratio             : 2.35:1\nFrame rate                       : 23.976 fps\nResolution                       : 24 bits\nColorimetry                      : 4:2:0\nScan type                        : Progressive\nBits/(Pixel*Frame)               : 0.355\nStream size                      : 1.52 GiB (91%)\nWriting library                  : XviD 1.2.0.dev47 (UTC 2006-11-01)\n\nAudio\nID                               : 1\nFormat                           : AC-3\nFormat/Info                      : Audio Coding 3\nCodec ID                         : 2000\nDuration                         : 1h 57mn\nBit rate mode                    : Constant\nBit rate                         : 192 Kbps\nChannel(s)                       : 2 channels\nChannel positions                : L R\nSampling rate                    : 48.0 KHz\nStream size                      : 152 MiB (9%)\nAlignment                        : Aligned on interleaves\nInterleave, duration             : 68 ms (1.62 video frames)\nInterleave, preload duration     : 192 ms\n\n\nSource: DVD (perfect a/v/sync quality,sample included)\nThis torrent is not seedbox supported,please seed it to the MAX\n\nPlease Seed &amp; Enjoy - 30mb Upload Speed :)","torrent":{"xt":"urn:btih:a3d20f48f8dcfd07a7d043cbddcb176d60b4ce3e","amp;dn":"The+Grey+2012+DVDRip+XviD+-+MAXSPEED+Stumpie1971","amp;tr":["udp%3A%2F%2Ftracker.openbittorrent.com%3A80","udp%3A%2F%2Fopen.demonii.com%3A1337","udp%3A%2F%2Ftracker.coppersurfer.tk%3A6969","udp%3A%2F%2Fexodus.desync.com%3A6969"],"infoHash":"a3d20f48f8dcfd07a7d043cbddcb176d60b4ce3e","infoHashBuffer":{"type":"Buffer","data":[163,210,15,72,248,220,253,7,167,208,67,203,221,203,23,109,96,180,206,62]},"announce":[],"urlList":[]}}